<?xml version="1.0" standalone="no"?>
<!DOCTYPE svg PUBLIC "-//W3C//DTD SVG 20010904//EN"
 "http://www.w3.org/TR/2001/REC-SVG-20010904/DTD/svg10.dtd">
<svg version="1.0" xmlns="http://www.w3.org/2000/svg"
 width="972.000000pt" height="1280.000000pt" viewBox="0 0 972.000000 1280.000000"
 preserveAspectRatio="xMidYMid meet">
<metadata>
Created by potrace 1.15, written by Peter Selinger 2001-2017
</metadata>
<g transform="translate(0.000000,1280.000000) scale(0.100000,-0.100000)"
fill="#000000" stroke="none">
<path d="M4857 12793 c-16 -15 -4 -60 52 -195 65 -156 78 -198 63 -198 -5 0
-64 35 -130 79 -126 82 -164 97 -183 75 -9 -11 3 -29 55 -85 76 -80 216 -253
257 -317 58 -91 48 -160 -49 -353 l-67 -134 -53 0 -52 0 -64 -190 c-151 -449
-265 -694 -416 -890 -90 -116 -105 -144 -115 -205 -10 -66 -39 -125 -92 -190
-50 -62 -58 -64 -97 -21 -14 16 -31 21 -66 21 -124 0 -522 -158 -566 -225 -8
-12 -19 -51 -25 -86 -28 -161 -88 -136 -68 28 12 91 25 116 77 142 38 19 62
55 62 91 0 11 -12 79 -26 151 -14 73 -32 184 -40 248 -18 149 -48 215 -138
299 -198 185 -500 189 -662 9 -102 -114 -137 -248 -138 -532 -1 -180 0 -192
23 -238 18 -37 35 -55 76 -78 66 -37 69 -41 90 -112 25 -88 9 -94 -63 -25 -71
68 -211 161 -292 194 -43 17 -79 24 -128 24 -75 0 -81 4 -146 93 -15 20 -32
37 -39 37 -7 0 -29 -27 -50 -59 -50 -78 -103 -131 -130 -131 -26 0 -97 70
-147 144 -18 27 -79 128 -135 225 -56 97 -140 241 -187 321 -47 80 -141 242
-210 360 l-125 215 -40 -3 c-46 -3 -58 10 -94 100 -11 29 -33 70 -50 90 -37
47 -46 71 -70 186 -10 51 -23 101 -29 112 -7 14 -6 32 6 67 32 95 75 195 130
304 81 162 79 156 42 175 -51 27 -83 -1 -154 -136 l-29 -55 -3 40 c-2 22 4 94
13 160 21 146 18 179 -12 183 -30 4 -57 -41 -78 -132 -19 -86 -30 -108 -45
-86 -5 8 -21 52 -35 98 -26 84 -44 104 -74 85 -13 -9 -15 -26 -13 -99 4 -87
-9 -151 -27 -139 -5 3 -17 29 -26 58 -20 61 -37 82 -59 74 -22 -9 -20 -47 6
-149 38 -146 3 -169 -163 -108 -109 41 -134 32 -83 -29 14 -17 52 -45 85 -62
54 -29 60 -36 74 -82 8 -28 15 -57 15 -64 0 -20 53 -122 106 -203 56 -87 86
-155 108 -244 18 -68 18 -69 -4 -99 l-23 -30 37 -107 c41 -123 41 -123 21
-143 -13 -14 -8 -30 44 -139 32 -69 91 -179 130 -245 90 -153 114 -208 146
-334 34 -132 62 -187 144 -273 88 -94 108 -123 142 -212 47 -122 73 -155 326
-416 169 -174 297 -327 333 -398 46 -90 160 -504 160 -581 0 -30 -9 -97 -20
-149 -22 -97 -21 -123 3 -114 12 4 15 -26 20 -173 4 -148 13 -224 50 -448 57
-339 76 -488 84 -641 9 -184 4 -202 -76 -288 -66 -72 -68 -75 -105 -198 -76
-255 -98 -443 -67 -569 l13 -56 -56 -162 c-111 -322 -121 -444 -58 -701 36
-144 43 -189 52 -350 18 -320 15 -458 -14 -590 -90 -415 -89 -405 -82 -546 6
-134 28 -292 91 -679 20 -121 39 -274 42 -340 l6 -120 -49 -120 c-46 -114 -49
-125 -48 -210 1 -84 5 -103 67 -285 36 -107 69 -220 73 -250 7 -63 -9 -164
-62 -375 -35 -144 -57 -195 -194 -454 -121 -230 -133 -369 -36 -415 48 -23
106 -20 193 9 173 59 336 176 409 297 34 55 37 69 50 189 19 182 50 244 114
224 67 -21 240 192 240 297 0 41 -19 85 -76 173 -41 64 -42 74 -9 105 79 74
94 303 34 507 l-21 71 26 164 c32 197 32 233 4 530 -24 265 -27 488 -8 733 8
116 10 254 6 435 -9 352 -1 385 154 597 143 195 163 259 114 366 -32 70 -37
129 -12 153 12 13 20 14 37 5 11 -7 21 -16 21 -21 0 -6 31 -43 69 -82 116
-123 125 -162 87 -348 -14 -69 -26 -151 -26 -182 0 -69 29 -286 70 -524 26
-148 30 -200 33 -410 4 -206 1 -252 -15 -334 -22 -109 -23 -103 35 -430 l41
-235 0 -365 c0 -201 -4 -420 -9 -487 -10 -146 1 -199 52 -248 33 -32 33 -32
19 -76 -7 -24 -28 -82 -47 -129 -28 -74 -33 -97 -33 -180 0 -79 5 -108 28
-175 38 -108 38 -173 -3 -289 -64 -184 -24 -360 110 -480 77 -69 159 -89 269
-65 192 41 242 318 149 824 -11 61 -36 179 -55 263 -32 136 -34 158 -25 203 6
27 11 67 11 88 l0 39 83 22 c169 44 234 73 269 121 55 74 42 562 -38 1409 -33
362 -39 403 -86 660 -55 293 -56 377 -11 540 73 259 193 721 213 817 24 120
26 288 9 578 -12 192 -11 215 22 385 l12 66 -57 139 c-168 407 -199 487 -223
579 -24 94 -25 106 -15 182 7 44 12 116 12 160 0 113 21 196 75 298 l46 89 -6
86 c-8 102 -1 126 87 313 33 70 66 151 74 180 8 30 19 148 25 273 l11 220 45
115 c52 132 77 229 90 352 14 124 41 172 118 212 73 38 94 71 106 168 9 70 23
102 84 187 14 19 30 52 35 75 28 114 51 163 181 378 214 354 238 407 297 673
45 203 63 255 132 375 26 47 64 130 84 185 20 55 45 122 56 149 18 45 18 51 4
67 -13 15 -15 43 -12 186 l4 168 53 140 c40 106 55 161 62 228 10 97 19 120
78 191 39 46 51 79 33 90 -5 3 -37 -13 -73 -34 -111 -69 -134 -54 -127 81 9
155 -6 167 -59 49 -20 -44 -40 -80 -43 -80 -11 0 -26 44 -50 139 -24 94 -42
136 -64 144 -27 11 -39 -20 -37 -99 1 -41 -1 -80 -5 -85 -8 -13 -29 17 -66 95
-43 89 -85 126 -111 99z"/>
<path d="M7426 12488 c-9 -12 -16 -33 -16 -46 0 -14 -15 -45 -34 -71 -54 -74
-76 -127 -88 -211 -7 -44 -15 -80 -18 -80 -4 0 -12 18 -19 40 -25 85 -61 54
-61 -54 0 -49 -7 -85 -20 -115 -30 -65 -27 -157 8 -262 27 -78 29 -99 36 -306
9 -259 3 -282 -65 -283 -47 0 -55 -22 -36 -98 10 -37 29 -155 42 -262 33 -254
41 -299 71 -380 l25 -67 -25 -68 c-30 -79 -31 -95 -10 -194 16 -79 12 -135
-13 -184 -19 -37 -36 -30 -45 19 -11 60 -9 346 2 467 12 126 3 175 -40 219
-21 20 -38 28 -64 28 -31 0 -38 5 -55 38 -28 56 -40 126 -51 310 -6 92 -17
193 -25 224 -33 130 -127 262 -209 293 -57 22 -107 17 -122 -12 -6 -13 -26
-33 -44 -45 -77 -53 -95 -116 -60 -217 25 -76 73 -154 146 -237 29 -34 58 -72
63 -85 24 -65 36 -226 36 -499 0 -302 -7 -373 -60 -645 -16 -79 -25 -162 -25
-219 0 -89 -1 -95 -32 -136 -58 -76 -60 -83 -43 -134 19 -56 14 -66 -29 -66
-45 0 -54 27 -55 154 0 110 9 146 38 146 33 0 51 11 66 41 25 47 18 122 -20
228 -77 213 -162 342 -279 426 -94 67 -160 87 -271 83 -79 -3 -100 -8 -167
-40 -134 -64 -205 -150 -228 -277 -14 -79 -6 -163 30 -306 15 -60 30 -136 34
-168 3 -32 17 -80 31 -106 21 -42 29 -49 63 -54 60 -10 101 -67 117 -164 6
-36 4 -42 -14 -48 -11 -3 -25 -21 -31 -41 -16 -47 -47 -61 -99 -45 -41 12
-151 2 -221 -21 -125 -40 -236 -127 -284 -224 -48 -97 -58 -154 -66 -409 -9
-269 -13 -292 -87 -439 -25 -49 -71 -166 -103 -260 -31 -94 -71 -209 -89 -256
-40 -110 -43 -215 -8 -301 31 -74 113 -204 146 -230 51 -40 160 -1 252 90 70
71 93 120 130 273 57 243 103 378 128 378 19 0 110 -123 146 -195 52 -108 85
-241 92 -377 8 -150 -3 -179 -102 -289 -127 -140 -141 -191 -130 -464 12 -322
5 -402 -80 -914 -25 -151 -45 -282 -45 -292 0 -13 7 -19 23 -19 41 0 54 -21
66 -110 22 -165 16 -187 -59 -225 -28 -14 -50 -29 -50 -35 0 -5 20 -38 44 -74
86 -124 88 -132 100 -326 6 -96 11 -256 11 -355 -1 -216 -17 -305 -102 -544
-118 -337 -135 -390 -158 -501 -35 -163 -40 -310 -25 -723 13 -379 8 -494 -26
-576 -9 -21 -61 -81 -123 -141 -128 -124 -169 -182 -222 -319 -42 -108 -46
-138 -27 -192 30 -88 75 -118 139 -92 39 15 41 15 62 -6 20 -20 22 -35 28
-184 6 -186 17 -225 93 -331 99 -139 237 -236 348 -244 69 -5 102 2 128 28 27
27 25 66 -5 181 -78 293 -104 471 -88 614 l8 70 37 6 c52 8 84 33 98 74 14 41
44 62 65 45 8 -7 23 -36 35 -66 16 -44 20 -78 20 -178 0 -142 12 -193 66 -275
60 -91 238 -262 313 -299 35 -18 75 -32 88 -32 31 0 47 41 39 102 -8 62 -27
105 -89 206 -48 78 -50 85 -39 116 16 44 15 81 -3 116 -14 27 -13 34 10 95 15
41 28 107 35 173 15 148 75 510 111 668 16 73 70 284 120 470 54 205 103 418
125 538 44 252 52 280 131 451 117 252 121 265 178 641 42 283 90 435 151 483
47 37 53 57 54 183 0 80 9 168 27 275 25 151 29 212 20 405 -2 59 24 89 101
118 47 18 57 19 69 7 12 -12 10 -24 -11 -82 -43 -114 -32 -206 34 -281 55 -63
62 -109 70 -434 8 -325 11 -342 80 -526 l40 -108 -24 -25 c-54 -58 -78 -151
-77 -294 1 -51 -1 -118 -5 -149 -10 -102 39 -705 72 -878 21 -110 17 -212 -12
-357 -28 -142 -27 -192 7 -303 14 -46 22 -116 30 -250 6 -102 19 -229 30 -284
23 -113 21 -139 -31 -373 -79 -353 -50 -582 84 -664 61 -37 197 -17 259 39 67
60 85 186 68 459 -16 234 -15 241 69 628 85 393 87 404 65 621 -20 204 -23
186 50 389 134 375 177 698 154 1160 -19 382 -17 883 4 1012 9 56 23 119 32
140 l16 37 24 -29 c14 -17 29 -46 35 -65 15 -51 82 -709 77 -746 -3 -17 -26
-77 -52 -134 -61 -131 -75 -186 -75 -287 0 -108 20 -207 74 -366 31 -89 52
-175 65 -263 11 -72 43 -227 71 -343 l50 -212 -49 -182 c-26 -100 -59 -234
-72 -298 -27 -135 -23 -149 41 -149 53 0 94 -37 120 -107 12 -31 28 -69 37
-84 16 -26 15 -29 -59 -145 -181 -286 -211 -397 -127 -469 38 -31 64 -31 135
0 91 40 115 32 150 -50 23 -53 21 -134 -4 -223 -23 -80 -21 -113 10 -175 40
-80 192 -213 296 -259 58 -26 205 -36 242 -16 50 27 34 110 -35 183 -76 81
-128 247 -155 495 -17 153 -8 351 30 665 26 211 31 282 26 375 -5 108 -4 119
21 180 36 88 42 229 18 405 -17 130 -20 203 -14 350 3 72 0 85 -25 133 -35 65
-32 80 35 163 78 97 105 167 125 328 3 29 1 144 -6 255 -11 186 -11 216 8 391
36 326 36 327 17 424 -16 84 -16 93 0 162 10 44 20 152 25 264 13 275 17 317
45 455 17 85 27 176 31 285 8 187 -4 252 -63 350 -36 60 -36 61 -38 185 -2
111 -7 142 -43 280 -62 230 -90 321 -112 361 -11 20 -20 42 -20 47 0 6 27 29
59 51 86 59 104 89 96 154 -37 287 -97 672 -108 699 -27 64 -28 104 -7 208 27
135 65 235 146 388 169 320 154 283 154 381 0 70 6 104 29 172 110 326 140
666 106 1204 -12 183 -16 328 -12 419 l7 139 -29 32 c-33 38 -102 235 -126
358 -9 48 -15 141 -16 235 0 99 -5 170 -13 192 -12 32 -10 39 18 92 24 44 28
59 19 69 -18 18 -41 4 -60 -35 -20 -43 -36 -50 -80 -35 -45 15 -53 34 -53 134
0 88 -10 125 -34 125 -18 0 -26 -22 -26 -76 0 -46 -13 -84 -30 -84 -23 0 -53
65 -60 130 -6 56 -14 78 -46 124 -59 85 -69 75 -67 -66 l2 -117 -27 5 c-57 10
-57 -6 -2 -116 29 -57 63 -121 76 -142 54 -85 103 -197 118 -269 27 -129 39
-393 33 -699 -8 -400 -36 -614 -102 -778 l-34 -84 24 -23 25 -22 -35 -59 c-55
-90 -69 -152 -60 -254 14 -152 12 -181 -11 -196 -17 -12 -23 -12 -38 -1 -17
12 -17 19 -6 86 18 107 2 112 -168 55 -121 -40 -213 -54 -237 -34 -17 14 -20
57 -6 79 5 8 42 31 82 50 118 58 114 45 114 364 l0 272 -26 55 c-32 68 -74
118 -142 167 -29 20 -82 65 -118 99 -73 70 -108 81 -223 72 -179 -15 -350
-204 -416 -462 -32 -126 -28 -229 15 -351 19 -55 38 -120 41 -146 l6 -46 -48
-7 c-27 -4 -68 -14 -91 -23 -23 -8 -50 -12 -60 -9 -14 6 -11 10 16 27 30 18
33 24 28 57 -5 39 -22 80 -62 151 -19 34 -25 58 -25 105 0 34 -11 111 -25 171
-46 205 -83 559 -105 990 -6 121 -15 230 -20 243 -8 17 -18 22 -48 22 l-38 0
-13 108 c-19 150 -25 313 -12 370 7 35 7 59 -1 84 -10 32 -7 43 19 100 16 34
62 115 101 178 103 164 124 230 74 230 -30 0 -65 -34 -96 -92 -33 -61 -65
-100 -77 -92 -26 16 -2 114 56 225 41 79 58 150 50 207 -5 32 -11 42 -25 42
-28 0 -60 -47 -60 -89 0 -37 -32 -101 -50 -101 -7 0 -8 37 -4 110 6 97 5 110
-9 110 -9 0 -23 -10 -31 -22z m-346 -3399 c0 -49 8 -113 20 -161 18 -69 19
-87 9 -133 -20 -91 -9 -163 43 -268 112 -225 128 -265 143 -376 8 -63 36 -179
69 -288 53 -173 55 -184 46 -241 -19 -116 -103 -352 -126 -352 -8 0 -26 17
-40 38 -14 20 -36 53 -49 72 -13 19 -36 54 -52 78 -15 24 -52 76 -81 117 l-53
75 35 92 c38 102 67 269 67 383 0 67 -3 76 -64 195 -35 69 -69 149 -76 178
-10 49 -9 60 24 160 41 128 51 193 61 375 7 148 24 188 24 56z m-887 -5381 c4
-24 3 -135 -2 -248 l-8 -205 -50 -135 c-121 -327 -155 -530 -121 -728 9 -55 8
-111 -6 -293 -22 -288 -41 -380 -109 -519 -30 -61 -36 -66 -87 -86 -97 -39
-104 -43 -179 -109 -54 -47 -77 -62 -83 -53 -13 22 -9 307 7 436 21 172 55
332 141 672 100 392 134 491 264 759 88 181 114 246 130 319 20 90 75 232 90
232 4 0 10 -19 13 -42z"/>
</g>
</svg>
